{
	"asset": {
		"generator": "Khronos glTF Blender I/O v1.5.17",
		"version": "2.0"
	},
	"scene": 0,
	"scenes": [
		{
			"name": "Scene",
			"nodes": [
				0,
				1
			]
		}
	],
	"nodes": [
		{
			"mesh": 0,
			"name": "锥体块",
			"rotation": [
				0.7071068286895752,
				0,
				0,
				0.7071067094802856
			]
		},
		{
			"mesh": 1,
			"name": "锥体线",
			"rotation": [
				0.7071068286895752,
				0,
				0,
				0.7071067094802856
			]
		}
	],
	"materials": [
		{
			"doubleSided": true,
			"name": "default",
			"pbrMetallicRoughness": {
				"metallicFactor": 0
			}
		},
		{
			"doubleSided": true,
			"name": "default.001",
			"pbrMetallicRoughness": {
				"baseColorFactor": [
					0,
					0,
					0,
					1
				],
				"metallicFactor": 0
			}
		}
	],
	"meshes": [
		{
			"name": "锥体块",
			"primitives": [
				{
					"attributes": {
						"POSITION": 0,
						"NORMAL": 1,
						"TEXCOORD_0": 2
					},
					"indices": 3,
					"material": 0
				}
			]
		},
		{
			"name": "锥体线",
			"primitives": [
				{
					"attributes": {
						"POSITION": 4,
						"NORMAL": 5,
						"TEXCOORD_0": 6
					},
					"indices": 7,
					"material": 1
				}
			]
		}
	],
	"accessors": [
		{
			"bufferView": 0,
			"componentType": 5126,
			"count": 147,
			"max": [
				5,
				5,
				5
			],
			"min": [
				-5,
				-5,
				-5
			],
			"type": "VEC3"
		},
		{
			"bufferView": 1,
			"componentType": 5126,
			"count": 147,
			"type": "VEC3"
		},
		{
			"bufferView": 2,
			"componentType": 5126,
			"count": 147,
			"type": "VEC2"
		},
		{
			"bufferView": 3,
			"componentType": 5123,
			"count": 432,
			"type": "SCALAR"
		},
		{
			"bufferView": 4,
			"componentType": 5126,
			"count": 507,
			"max": [
				5.10021448135376,
				5.10021448135376,
				5.086602687835693
			],
			"min": [
				-5.10021448135376,
				-5.10021448135376,
				4.913397312164307
			],
			"type": "VEC3"
		},
		{
			"bufferView": 5,
			"componentType": 5126,
			"count": 507,
			"type": "VEC3"
		},
		{
			"bufferView": 6,
			"componentType": 5126,
			"count": 507,
			"type": "VEC2"
		},
		{
			"bufferView": 7,
			"componentType": 5123,
			"count": 1728,
			"type": "SCALAR"
		}
	],
	"bufferViews": [
		{
			"buffer": 0,
			"byteLength": 1764,
			"byteOffset": 0
		},
		{
			"buffer": 0,
			"byteLength": 1764,
			"byteOffset": 1764
		},
		{
			"buffer": 0,
			"byteLength": 1176,
			"byteOffset": 3528
		},
		{
			"buffer": 0,
			"byteLength": 864,
			"byteOffset": 4704
		},
		{
			"buffer": 0,
			"byteLength": 6084,
			"byteOffset": 5568
		},
		{
			"buffer": 0,
			"byteLength": 6084,
			"byteOffset": 11652
		},
		{
			"buffer": 0,
			"byteLength": 4056,
			"byteOffset": 17736
		},
		{
			"buffer": 0,
			"byteLength": 3456,
			"byteOffset": 21792
		}
	],
	"buffers": [
		{
			"uri": "cone_data.bin",
			"byteLength": 25248
		}
	]
}