{
  "asset": {
    "generator": "Khronos glTF Blender I/O v1.5.17",
    "version": "2.0"
  },
  "scene": 0,
  "scenes": [
    {
      "name": "Scene",
      "nodes": [
        0,
        1
      ]
    }
  ],
  "nodes": [
    {
      "mesh": 0,
      "name": "Cone",
      "rotation": [
        0.7071068286895752,
        0,
        0,
        0.7071067094802856
      ],
      "scale": [
        0.009999999776482582,
        0.009999999776482582,
        0.009999999776482582
      ]
    },
    {
      "mesh": 1,
      "name": "Sweep_1",
      "rotation": [
        0.7071068286895752,
        0,
        0,
        0.7071067094802856
      ],
      "scale": [
        0.009999999776482582,
        0.009999999776482582,
        0.009999999776482582
      ]
    }
  ],
  "materials": [
    {
      "doubleSided": true,
      "name": "材质",
      "pbrMetallicRoughness": {
        "baseColorFactor": [
          0,
          0,
          0,
          1
        ],
        "metallicFactor": 0,
        "roughnessFactor": 0.5
      }
    }
  ],
  "meshes": [
    {
      "name": "网格",
      "primitives": [
        {
          "attributes": {
            "POSITION": 0,
            "NORMAL": 1,
            "TEXCOORD_0": 2
          },
          "indices": 3
        }
      ]
    },
    {
      "name": "网格.001",
      "primitives": [
        {
          "attributes": {
            "POSITION": 4,
            "NORMAL": 5,
            "TEXCOORD_0": 6
          },
          "indices": 7,
          "material": 0
        }
      ]
    }
  ],
  "accessors": [
    {
      "bufferView": 0,
      "componentType": 5126,
      "count": 442,
      "max": [
        100,
        100,
        0
      ],
      "min": [
        -100,
        -100,
        -200
      ],
      "type": "VEC3"
    },
    {
      "bufferView": 1,
      "componentType": 5126,
      "count": 442,
      "type": "VEC3"
    },
    {
      "bufferView": 2,
      "componentType": 5126,
      "count": 442,
      "type": "VEC2"
    },
    {
      "bufferView": 3,
      "componentType": 5123,
      "count": 2268,
      "type": "SCALAR"
    },
    {
      "bufferView": 4,
      "componentType": 5126,
      "count": 981,
      "max": [
        101.00382232666016,
        101.00382232666016,
        1
      ],
      "min": [
        -101.00382232666016,
        -101.00382232666016,
        -1
      ],
      "type": "VEC3"
    },
    {
      "bufferView": 5,
      "componentType": 5126,
      "count": 981,
      "type": "VEC3"
    },
    {
      "bufferView": 6,
      "componentType": 5126,
      "count": 981,
      "type": "VEC2"
    },
    {
      "bufferView": 7,
      "componentType": 5123,
      "count": 5184,
      "type": "SCALAR"
    }
  ],
  "bufferViews": [
    {
      "buffer": 0,
      "byteLength": 5304,
      "byteOffset": 0
    },
    {
      "buffer": 0,
      "byteLength": 5304,
      "byteOffset": 5304
    },
    {
      "buffer": 0,
      "byteLength": 3536,
      "byteOffset": 10608
    },
    {
      "buffer": 0,
      "byteLength": 4536,
      "byteOffset": 14144
    },
    {
      "buffer": 0,
      "byteLength": 11772,
      "byteOffset": 18680
    },
    {
      "buffer": 0,
      "byteLength": 11772,
      "byteOffset": 30452
    },
    {
      "buffer": 0,
      "byteLength": 7848,
      "byteOffset": 42224
    },
    {
      "buffer": 0,
      "byteLength": 10368,
      "byteOffset": 50072
    }
  ],
  "buffers": [
    {
      "uri": "cone_data.bin",
      "byteLength": 60440
    }
  ]
}