{
	"asset": {
		"generator": "Khronos glTF Blender I/O v1.5.17",
		"version": "2.0"
	},
	"scene": 0,
	"scenes": [
		{
			"name": "Scene",
			"nodes": [
				0,
				1
			]
		}
	],
	"nodes": [
		{
			"mesh": 0,
			"name": "长方体块",
			"rotation": [
				0.7071068286895752,
				0,
				0,
				0.7071067094802856
			]
		},
		{
			"mesh": 1,
			"name": "长方体线",
			"rotation": [
				0.7071068286895752,
				0,
				0,
				0.7071067094802856
			]
		}
	],
	"materials": [
		{
			"doubleSided": true,
			"name": "default",
			"pbrMetallicRoughness": {
				"metallicFactor": 0
			}
		},
		{
			"doubleSided": true,
			"name": "default.001",
			"pbrMetallicRoughness": {
				"baseColorFactor": [
					0,
					0,
					0,
					1
				],
				"metallicFactor": 0
			}
		}
	],
	"meshes": [
		{
			"name": "长方体块",
			"primitives": [
				{
					"attributes": {
						"POSITION": 0,
						"NORMAL": 1,
						"TEXCOORD_0": 2
					},
					"indices": 3,
					"material": 0
				}
			]
		},
		{
			"name": "长方体线",
			"primitives": [
				{
					"attributes": {
						"POSITION": 4,
						"NORMAL": 5,
						"TEXCOORD_0": 6
					},
					"indices": 7,
					"material": 1
				}
			]
		}
	],
	"accessors": [
		{
			"bufferView": 0,
			"componentType": 5126,
			"count": 24,
			"max": [
				8,
				5,
				5
			],
			"min": [
				-8,
				-5,
				-5
			],
			"type": "VEC3"
		},
		{
			"bufferView": 1,
			"componentType": 5126,
			"count": 24,
			"type": "VEC3"
		},
		{
			"bufferView": 2,
			"componentType": 5126,
			"count": 24,
			"type": "VEC2"
		},
		{
			"bufferView": 3,
			"componentType": 5123,
			"count": 36,
			"type": "SCALAR"
		},
		{
			"bufferView": 4,
			"componentType": 5126,
			"count": 248,
			"max": [
				8.100000381469727,
				5.099999904632568,
				5.090824604034424
			],
			"min": [
				-8.100000381469727,
				-5.099938869476318,
				-5.093644142150879
			],
			"type": "VEC3"
		},
		{
			"bufferView": 5,
			"componentType": 5126,
			"count": 248,
			"type": "VEC3"
		},
		{
			"bufferView": 6,
			"componentType": 5126,
			"count": 248,
			"type": "VEC2"
		},
		{
			"bufferView": 7,
			"componentType": 5123,
			"count": 528,
			"type": "SCALAR"
		}
	],
	"bufferViews": [
		{
			"buffer": 0,
			"byteLength": 288,
			"byteOffset": 0
		},
		{
			"buffer": 0,
			"byteLength": 288,
			"byteOffset": 288
		},
		{
			"buffer": 0,
			"byteLength": 192,
			"byteOffset": 576
		},
		{
			"buffer": 0,
			"byteLength": 72,
			"byteOffset": 768
		},
		{
			"buffer": 0,
			"byteLength": 2976,
			"byteOffset": 840
		},
		{
			"buffer": 0,
			"byteLength": 2976,
			"byteOffset": 3816
		},
		{
			"buffer": 0,
			"byteLength": 1984,
			"byteOffset": 6792
		},
		{
			"buffer": 0,
			"byteLength": 1056,
			"byteOffset": 8776
		}
	],
	"buffers": [
		{
			"uri": "cuboid_data.bin",
			"byteLength": 9832
		}
	]
}