{
	"asset": {
		"generator": "Khronos glTF Blender I/O v1.5.17",
		"version": "2.0"
	},
	"scene": 0,
	"scenes": [
		{
			"name": "Scene",
			"nodes": [
				0,
				1
			]
		}
	],
	"nodes": [
		{
			"mesh": 0,
			"name": "圆柱体块",
			"rotation": [
				0.7071068286895752,
				0,
				0,
				0.7071067094802856
			]
		},
		{
			"mesh": 1,
			"name": "圆柱体线",
			"rotation": [
				0.7071068286895752,
				0,
				0,
				0.7071067094802856
			]
		}
	],
	"materials": [
		{
			"doubleSided": true,
			"name": "default",
			"pbrMetallicRoughness": {
				"metallicFactor": 0
			}
		},
		{
			"doubleSided": true,
			"name": "default.001",
			"pbrMetallicRoughness": {
				"baseColorFactor": [
					0,
					0,
					0,
					1
				],
				"metallicFactor": 0
			}
		}
	],
	"meshes": [
		{
			"name": "圆柱体块",
			"primitives": [
				{
					"attributes": {
						"POSITION": 0,
						"NORMAL": 1,
						"TEXCOORD_0": 2
					},
					"indices": 3,
					"material": 0
				}
			]
		},
		{
			"name": "圆柱体线",
			"primitives": [
				{
					"attributes": {
						"POSITION": 4,
						"NORMAL": 5,
						"TEXCOORD_0": 6
					},
					"indices": 7,
					"material": 1
				}
			]
		}
	],
	"accessors": [
		{
			"bufferView": 0,
			"componentType": 5126,
			"count": 196,
			"max": [
				5,
				5,
				5
			],
			"min": [
				-5,
				-5,
				-5
			],
			"type": "VEC3"
		},
		{
			"bufferView": 1,
			"componentType": 5126,
			"count": 196,
			"type": "VEC3"
		},
		{
			"bufferView": 2,
			"componentType": 5126,
			"count": 196,
			"type": "VEC2"
		},
		{
			"bufferView": 3,
			"componentType": 5123,
			"count": 576,
			"type": "SCALAR"
		},
		{
			"bufferView": 4,
			"componentType": 5126,
			"count": 1038,
			"max": [
				5.10021448135376,
				5.10021448135376,
				5.086602687835693
			],
			"min": [
				-5.099785804748535,
				-5.10021448135376,
				-5.086602687835693
			],
			"type": "VEC3"
		},
		{
			"bufferView": 5,
			"componentType": 5126,
			"count": 1038,
			"type": "VEC3"
		},
		{
			"bufferView": 6,
			"componentType": 5126,
			"count": 1038,
			"type": "VEC2"
		},
		{
			"bufferView": 7,
			"componentType": 5123,
			"count": 3504,
			"type": "SCALAR"
		}
	],
	"bufferViews": [
		{
			"buffer": 0,
			"byteLength": 2352,
			"byteOffset": 0
		},
		{
			"buffer": 0,
			"byteLength": 2352,
			"byteOffset": 2352
		},
		{
			"buffer": 0,
			"byteLength": 1568,
			"byteOffset": 4704
		},
		{
			"buffer": 0,
			"byteLength": 1152,
			"byteOffset": 6272
		},
		{
			"buffer": 0,
			"byteLength": 12456,
			"byteOffset": 7424
		},
		{
			"buffer": 0,
			"byteLength": 12456,
			"byteOffset": 19880
		},
		{
			"buffer": 0,
			"byteLength": 8304,
			"byteOffset": 32336
		},
		{
			"buffer": 0,
			"byteLength": 7008,
			"byteOffset": 40640
		}
	],
	"buffers": [
		{
			"uri": "cylinder_data.bin",
			"byteLength": 47648
		}
	]
}