{
	"asset": {
		"generator": "Khronos glTF Blender I/O v1.5.17",
		"version": "2.0"
	},
	"scene": 0,
	"scenes": [
		{
			"name": "Scene",
			"nodes": [
				0,
				1
			]
		}
	],
	"nodes": [
		{
			"mesh": 0,
			"name": "三棱柱",
			"rotation": [
				0.7071068286895752,
				0,
				0,
				0.7071067094802856
			]
		},
		{
			"mesh": 1,
			"name": "三棱线",
			"rotation": [
				0.7071068286895752,
				0,
				0,
				0.7071067094802856
			]
		}
	],
	"materials": [
		{
			"doubleSided": true,
			"name": "default",
			"pbrMetallicRoughness": {
				"metallicFactor": 0
			}
		},
		{
			"doubleSided": true,
			"name": "default.001",
			"pbrMetallicRoughness": {
				"baseColorFactor": [
					0,
					0,
					0,
					1
				],
				"metallicFactor": 0
			}
		}
	],
	"meshes": [
		{
			"name": "三棱柱",
			"primitives": [
				{
					"attributes": {
						"POSITION": 0,
						"NORMAL": 1,
						"TEXCOORD_0": 2
					},
					"indices": 3,
					"material": 0
				}
			]
		},
		{
			"name": "三棱线",
			"primitives": [
				{
					"attributes": {
						"POSITION": 4,
						"NORMAL": 5,
						"TEXCOORD_0": 6
					},
					"indices": 7,
					"material": 1
				}
			]
		}
	],
	"accessors": [
		{
			"bufferView": 0,
			"componentType": 5126,
			"count": 20,
			"max": [
				5.000084400177002,
				5.773600101470947,
				5
			],
			"min": [
				-5.000084400177002,
				-2.8868000507354736,
				-5
			],
			"type": "VEC3"
		},
		{
			"bufferView": 1,
			"componentType": 5126,
			"count": 20,
			"type": "VEC3"
		},
		{
			"bufferView": 2,
			"componentType": 5126,
			"count": 20,
			"type": "VEC2"
		},
		{
			"bufferView": 3,
			"componentType": 5123,
			"count": 36,
			"type": "SCALAR"
		},
		{
			"bufferView": 4,
			"componentType": 5126,
			"count": 179,
			"max": [
				5.10008430480957,
				5.867102146148682,
				5.099999904632568
			],
			"min": [
				-5.10008430480957,
				-2.9866204261779785,
				-5.099999904632568
			],
			"type": "VEC3"
		},
		{
			"bufferView": 5,
			"componentType": 5126,
			"count": 179,
			"type": "VEC3"
		},
		{
			"bufferView": 6,
			"componentType": 5126,
			"count": 179,
			"type": "VEC2"
		},
		{
			"bufferView": 7,
			"componentType": 5123,
			"count": 396,
			"type": "SCALAR"
		}
	],
	"bufferViews": [
		{
			"buffer": 0,
			"byteLength": 240,
			"byteOffset": 0
		},
		{
			"buffer": 0,
			"byteLength": 240,
			"byteOffset": 240
		},
		{
			"buffer": 0,
			"byteLength": 160,
			"byteOffset": 480
		},
		{
			"buffer": 0,
			"byteLength": 72,
			"byteOffset": 640
		},
		{
			"buffer": 0,
			"byteLength": 2148,
			"byteOffset": 712
		},
		{
			"buffer": 0,
			"byteLength": 2148,
			"byteOffset": 2860
		},
		{
			"buffer": 0,
			"byteLength": 1432,
			"byteOffset": 5008
		},
		{
			"buffer": 0,
			"byteLength": 792,
			"byteOffset": 6440
		}
	],
	"buffers": [
		{
			"uri": "prism_data.bin",
			"byteLength": 7232
		}
	]
}