{
  "asset": {
    "generator": "Khronos glTF Blender I/O v1.5.17",
    "version": "2.0"
  },
  "scene": 0,
  "scenes": [
    {
      "name": "Scene",
      "nodes": [
        0,
        1
      ]
    }
  ],
  "nodes": [
    {
      "mesh": 0,
      "name": "异形线",
      "rotation": [
        0.7071068286895752,
        0,
        0,
        0.7071067094802856
      ]
    },
    {
      "mesh": 1,
      "name": "异形体",
      "rotation": [
        0.7071068286895752,
        0,
        0,
        0.7071067094802856
      ]
    }
  ],
  "materials": [
    {
      "doubleSided": true,
      "name": "default",
      "pbrMetallicRoughness": {
        "baseColorFactor": [
          0,
          0,
          0,
          1
        ],
        "metallicFactor": 0
      }
    },
    {
      "doubleSided": true,
      "name": "default.001",
      "pbrMetallicRoughness": {
        "metallicFactor": 0
      }
    }
  ],
  "meshes": [
    {
      "name": "异形线",
      "primitives": [
        {
          "attributes": {
            "POSITION": 0,
            "NORMAL": 1,
            "TEXCOORD_0": 2
          },
          "indices": 3,
          "material": 0
        }
      ]
    },
    {
      "name": "异形体",
      "primitives": [
        {
          "attributes": {
            "POSITION": 4,
            "NORMAL": 5,
            "TEXCOORD_0": 6
          },
          "indices": 7,
          "material": 1
        }
      ]
    }
  ],
  "accessors": [
    {
      "bufferView": 0,
      "componentType": 5126,
      "count": 747,
      "max": [
        8.550000190734863,
        3.8002917766571045,
        0.04998435080051422
      ],
      "min": [
        -8.550555229187012,
        -3.7997360229492188,
        -10.360185623168945
      ],
      "type": "VEC3"
    },
    {
      "bufferView": 1,
      "componentType": 5126,
      "count": 747,
      "type": "VEC3"
    },
    {
      "bufferView": 2,
      "componentType": 5126,
      "count": 747,
      "type": "VEC2"
    },
    {
      "bufferView": 3,
      "componentType": 5123,
      "count": 3348,
      "type": "SCALAR"
    },
    {
      "bufferView": 4,
      "componentType": 5126,
      "count": 292,
      "max": [
        8.5,
        3.75,
        0
      ],
      "min": [
        -8.5,
        -3.75,
        -10.281743049621582
      ],
      "type": "VEC3"
    },
    {
      "bufferView": 5,
      "componentType": 5126,
      "count": 292,
      "type": "VEC3"
    },
    {
      "bufferView": 6,
      "componentType": 5126,
      "count": 292,
      "type": "VEC2"
    },
    {
      "bufferView": 7,
      "componentType": 5123,
      "count": 924,
      "type": "SCALAR"
    }
  ],
  "bufferViews": [
    {
      "buffer": 0,
      "byteLength": 8964,
      "byteOffset": 0
    },
    {
      "buffer": 0,
      "byteLength": 8964,
      "byteOffset": 8964
    },
    {
      "buffer": 0,
      "byteLength": 5976,
      "byteOffset": 17928
    },
    {
      "buffer": 0,
      "byteLength": 6696,
      "byteOffset": 23904
    },
    {
      "buffer": 0,
      "byteLength": 3504,
      "byteOffset": 30600
    },
    {
      "buffer": 0,
      "byteLength": 3504,
      "byteOffset": 34104
    },
    {
      "buffer": 0,
      "byteLength": 2336,
      "byteOffset": 37608
    },
    {
      "buffer": 0,
      "byteLength": 1848,
      "byteOffset": 39944
    }
  ],
  "buffers": [
    {
      "uri": "yixing_data.bin",
      "byteLength": 41792
    }
  ]
}