{
  "asset": {
    "generator": "Khronos glTF Blender I/O v1.5.17",
    "version": "2.0"
  },
  "scene": 0,
  "scenes": [
    {
      "name": "Scene",
      "nodes": [
        0,
        1
      ]
    }
  ],
  "nodes": [
    {
      "mesh": 0,
      "name": "Cloth_Surface_2",
      "rotation": [
        0.7071068286895752,
        0,
        0,
        0.7071067094802856
      ],
      "scale": [
        0.009999999776482582,
        0.009999999776482582,
        0.009999999776482582
      ]
    },
    {
      "mesh": 1,
      "name": "Sweep_1",
      "rotation": [
        0.7071068286895752,
        0,
        0,
        0.7071067094802856
      ],
      "scale": [
        0.009999999776482582,
        0.009999999776482582,
        0.009999999776482582
      ],
      "translation": [
        0,
        0,
        -0.000002778863063213066
      ]
    }
  ],
  "materials": [
    {
      "doubleSided": true,
      "name": "材质.001",
      "pbrMetallicRoughness": {}
    },
    {
      "doubleSided": true,
      "name": "材质",
      "pbrMetallicRoughness": {
        "baseColorFactor": [
          0.002321729203686118,
          0.002321729203686118,
          0.002321729203686118,
          1
        ],
        "metallicFactor": 0,
        "roughnessFactor": 0.5
      }
    }
  ],
  "meshes": [
    {
      "name": "网格",
      "primitives": [
        {
          "attributes": {
            "POSITION": 0,
            "NORMAL": 1,
            "TEXCOORD_0": 2
          },
          "indices": 3,
          "material": 0
        }
      ]
    },
    {
      "name": "网格.001",
      "primitives": [
        {
          "attributes": {
            "POSITION": 4,
            "NORMAL": 5,
            "TEXCOORD_0": 6
          },
          "indices": 7,
          "material": 1
        }
      ]
    }
  ],
  "accessors": [
    {
      "bufferView": 0,
      "componentType": 5126,
      "count": 292,
      "max": [
        170,
        75,
        0
      ],
      "min": [
        -170,
        -75,
        -205.63485717773438
      ],
      "type": "VEC3"
    },
    {
      "bufferView": 1,
      "componentType": 5126,
      "count": 292,
      "type": "VEC3"
    },
    {
      "bufferView": 2,
      "componentType": 5126,
      "count": 292,
      "type": "VEC2"
    },
    {
      "bufferView": 3,
      "componentType": 5123,
      "count": 924,
      "type": "SCALAR"
    },
    {
      "bufferView": 4,
      "componentType": 5126,
      "count": 747,
      "max": [
        171.0111083984375,
        76.00027465820312,
        0.9996870160102844
      ],
      "min": [
        -171,
        -76.00027465820312,
        -207.20372009277344
      ],
      "type": "VEC3"
    },
    {
      "bufferView": 5,
      "componentType": 5126,
      "count": 747,
      "type": "VEC3"
    },
    {
      "bufferView": 6,
      "componentType": 5126,
      "count": 747,
      "type": "VEC2"
    },
    {
      "bufferView": 7,
      "componentType": 5123,
      "count": 3348,
      "type": "SCALAR"
    }
  ],
  "bufferViews": [
    {
      "buffer": 0,
      "byteLength": 3504,
      "byteOffset": 0
    },
    {
      "buffer": 0,
      "byteLength": 3504,
      "byteOffset": 3504
    },
    {
      "buffer": 0,
      "byteLength": 2336,
      "byteOffset": 7008
    },
    {
      "buffer": 0,
      "byteLength": 1848,
      "byteOffset": 9344
    },
    {
      "buffer": 0,
      "byteLength": 8964,
      "byteOffset": 11192
    },
    {
      "buffer": 0,
      "byteLength": 8964,
      "byteOffset": 20156
    },
    {
      "buffer": 0,
      "byteLength": 5976,
      "byteOffset": 29120
    },
    {
      "buffer": 0,
      "byteLength": 6696,
      "byteOffset": 35096
    }
  ],
  "buffers": [
    {
      "uri": "yixing_data.bin",
      "byteLength": 41792
    }
  ]
}