{
  "asset": {
    "generator": "Khronos glTF Blender I/O v1.5.17",
    "version": "2.0"
  },
  "scene": 0,
  "scenes": [
    {
      "name": "Scene",
      "nodes": [
        0,
        1,
        2,
        3,
        4
      ]
    }
  ],
  "nodes": [
    {
      "name": "Light",
      "rotation": [
        0.16907575726509094,
        0.7558803558349609,
        -0.27217137813568115,
        0.570947527885437
      ],
      "translation": [
        4.076245307922363,
        5.903861999511719,
        -1.0054539442062378
      ]
    },
    {
      "name": "Camera",
      "rotation": [
        0.483536034822464,
        0.33687159419059753,
        -0.20870360732078552,
        0.7804827094078064
      ],
      "translation": [
        7.358891487121582,
        4.958309173583984,
        6.925790786743164
      ]
    },
    {
      "name": "CINEMA_4D_Editor",
      "rotation": [
        0.24018099904060364,
        0.473392516374588,
        -0.8365032076835632,
        0.1359228491783142
      ],
      "scale": [
        0.009999999776482582,
        0.009999999776482582,
        0.009999999776482582
      ],
      "translation": [
        -3.600776195526123,
        4.5014753341674805,
        5.90444803237915
      ]
    },
    {
      "mesh": 0,
      "name": "Cube.001",
      "rotation": [
        0.7071068286895752,
        0,
        0,
        0.7071067094802856
      ],
      "scale": [
        0.009999999776482582,
        0.009999999776482582,
        0.009999999776482582
      ]
    },
    {
      "mesh": 1,
      "name": "Sweep_1",
      "rotation": [
        0.7071068286895752,
        0,
        0,
        0.7071067094802856
      ],
      "scale": [
        0.009999999776482582,
        0.009999999776482582,
        0.009999999776482582
      ]
    }
  ],
  "materials": [
    {
      "doubleSided": true,
      "name": "材质",
      "pbrMetallicRoughness": {
        "baseColorFactor": [
          0,
          0,
          0,
          1
        ],
        "metallicFactor": 0,
        "roughnessFactor": 0.5
      }
    }
  ],
  "meshes": [
    {
      "name": "网格",
      "primitives": [
        {
          "attributes": {
            "POSITION": 0,
            "NORMAL": 1,
            "TEXCOORD_0": 2
          },
          "indices": 3
        }
      ]
    },
    {
      "name": "网格.001",
      "primitives": [
        {
          "attributes": {
            "POSITION": 4,
            "NORMAL": 5,
            "TEXCOORD_0": 6
          },
          "indices": 7,
          "material": 0
        }
      ]
    }
  ],
  "accessors": [
    {
      "bufferView": 0,
      "componentType": 5126,
      "count": 24,
      "max": [
        100,
        100,
        0
      ],
      "min": [
        -100,
        -100,
        -200
      ],
      "type": "VEC3"
    },
    {
      "bufferView": 1,
      "componentType": 5126,
      "count": 24,
      "type": "VEC3"
    },
    {
      "bufferView": 2,
      "componentType": 5126,
      "count": 24,
      "type": "VEC2"
    },
    {
      "bufferView": 3,
      "componentType": 5123,
      "count": 36,
      "type": "SCALAR"
    },
    {
      "bufferView": 4,
      "componentType": 5126,
      "count": 644,
      "max": [
        101,
        101,
        1
      ],
      "min": [
        -101,
        -101,
        -201
      ],
      "type": "VEC3"
    },
    {
      "bufferView": 5,
      "componentType": 5126,
      "count": 644,
      "type": "VEC3"
    },
    {
      "bufferView": 6,
      "componentType": 5126,
      "count": 644,
      "type": "VEC2"
    },
    {
      "bufferView": 7,
      "componentType": 5123,
      "count": 2832,
      "type": "SCALAR"
    }
  ],
  "bufferViews": [
    {
      "buffer": 0,
      "byteLength": 288,
      "byteOffset": 0
    },
    {
      "buffer": 0,
      "byteLength": 288,
      "byteOffset": 288
    },
    {
      "buffer": 0,
      "byteLength": 192,
      "byteOffset": 576
    },
    {
      "buffer": 0,
      "byteLength": 72,
      "byteOffset": 768
    },
    {
      "buffer": 0,
      "byteLength": 7728,
      "byteOffset": 840
    },
    {
      "buffer": 0,
      "byteLength": 7728,
      "byteOffset": 8568
    },
    {
      "buffer": 0,
      "byteLength": 5152,
      "byteOffset": 16296
    },
    {
      "buffer": 0,
      "byteLength": 5664,
      "byteOffset": 21448
    }
  ],
  "buffers": [
    {
      "uri": "cube_data.bin",
      "byteLength": 27112
    }
  ]
}